<svg width="13" height="11" viewBox="0 0 13 11" fill="none" xmlns="http://www.w3.org/2000/svg">
<path d="M2.44 2.165L0.175 3.8V2.345L2.65 0.514999H3.97V11H2.44V2.165ZM5.62422 9.995L7.88922 7.82C8.08922 7.62 8.36922 7.36 8.72922 7.04C9.29922 6.52 9.73422 6.1 10.0342 5.78C10.3342 5.46 10.5792 5.12 10.7692 4.76C10.9592 4.39 11.0542 3.995 11.0542 3.575C11.0542 2.955 10.8742 2.485 10.5142 2.165C10.1542 1.835 9.62922 1.67 8.93922 1.67C8.46922 1.67 7.98422 1.755 7.48422 1.925C6.99422 2.095 6.53422 2.345 6.10422 2.675V1.205C6.94422 0.594999 7.96922 0.289999 9.17922 0.289999C10.2592 0.289999 11.0992 0.579999 11.6992 1.16C12.2992 1.73 12.5992 2.51 12.5992 3.5C12.5992 3.98 12.4942 4.44 12.2842 4.88C12.0842 5.32 11.7992 5.755 11.4292 6.185C11.0592 6.605 10.5592 7.12 9.92922 7.73L7.88922 9.725H12.9892V11H5.62422V9.995Z" fill="#888888"/>
</svg>
